<?xml version="1.0" encoding="UTF-8" standalone="no"?>
<svg width="256px" height="256px" viewBox="0 0 256 256" version="1.1" xmlns="http://www.w3.org/2000/svg" xmlns:xlink="http://www.w3.org/1999/xlink" xmlns:sketch="http://www.bohemiancoding.com/sketch/ns">
    <!-- Generator: Sketch 3.4.2 (15855) - http://www.bohemiancoding.com/sketch -->
    <title>normal</title>
    <desc>Created with Sketch.</desc>
    <defs></defs>
    <g id="Page-1" stroke="none" stroke-width="1" fill="none" fill-rule="evenodd" sketch:type="MSPage">
        <g id="normal" sketch:type="MSArtboardGroup">
            <g id="face" sketch:type="MSLayerGroup" transform="translate(19.000000, 3.000000)">
                <path d="M10.2476249,95.4655922 C4.01485341,90.9498484 4.39070004,85.1274699 2.01750514,80.3112039 C-3.56658989,68.978596 4.21266992,56.0670661 4.21266992,56.0670661 C4.21266992,56.0670661 4.21018965,44.861295 6.19539938,39.7166443 C7.83940403,35.4562231 15.1003131,27.8518505 15.1003131,27.8518505 C15.1003131,27.8518505 12.8303283,16.3981751 28.7923694,7.24230492 C44.7544104,-1.91356526 55.1704205,5.56903124 55.1704205,5.56903124 C55.1704205,5.56903124 63.1146991,-2.07460802 72.1171459,0.547901343 C81.1195928,3.1704107 84.2366466,9.14601366 84.2366466,9.14601366 C84.2366466,9.14601366 95.3062919,0.184812865 103.652431,0.547901343 C111.998571,0.91098982 119.937802,9.14601366 119.937802,9.14601366 C119.937802,9.14601366 128.98614,2.09164126 138.840535,3.83945796 C148.694931,5.58727465 154.632895,15.2996802 154.632895,15.2996802 C154.632895,15.2996802 166.055935,6.82430975 177.963368,9.14601335 C189.870801,11.4677169 196.816667,23.5246446 196.816667,23.5246446 C196.816667,23.5246446 208.493932,18.7418066 214.359284,27.8518516 C220.224636,36.9618966 214.359284,60.4126031 214.359284,60.4126031 C214.359284,60.4126031 219.097276,70.7518285 218.113644,75.1604541 C217.244146,79.0575325 208.799892,85.3297153 208.799892,85.3297153 C208.799892,85.3297153 207.190926,93.7324564 204.380859,97.1804836 C201.570793,100.628511 194.833943,102.466311 194.833943,102.466311 C194.833943,102.466311 189.514177,103.590953 189.371625,105.589024 C189.289879,106.7348 191.792815,103.463053 196.816664,107.077326 C201.840513,110.691599 199.770192,115.371824 199.717281,117.059062 C199.545551,122.535284 195.992374,130.942447 194.833941,133.971171 C191.660552,142.268005 185.665772,140.363279 185.554144,142.109244 C183.80619,169.44882 182.35771,198.544081 182.35771,198.544081 C182.35771,198.544081 138.207749,241.096749 126.240053,244.680868 C122.316016,245.85605 112.031266,251.624402 103.652435,249.179591 C97.2620624,247.314981 92.9155363,238.210321 87.8253374,233.181368 C80.9171079,226.356258 70.7628173,220.215904 64.4080146,211.058282 C43.4196386,180.812872 28.7923681,136.452277 28.7923681,136.452277 L23.1095153,102.466311 C23.1095153,102.466311 16.4803965,99.981336 10.2476249,95.4655922 Z" id="face-shaddow" fill="#000000" sketch:type="MSShapeGroup"></path>
                <path d="M19.5195203,93.935187 C13.772325,89.6646739 12.6355125,87.0738066 10.447206,82.5190914 C5.2981508,71.801909 12.4713522,59.591549 12.4713522,59.591549 C12.4713522,59.591549 12.4690651,48.9943154 14.2996132,44.1290487 C15.8155385,40.0999927 22.5107722,32.9085811 22.5107722,32.9085811 C22.5107722,32.9085811 20.417635,22.0769057 35.1361221,13.4182517 C49.8546091,4.75959762 59.4591395,11.8358463 59.4591395,11.8358463 C59.4591395,11.8358463 66.7845036,4.60730041 75.0855972,7.08739251 C83.3866908,9.56748461 86.2609045,15.2185781 86.2609045,15.2185781 C86.2609045,15.2185781 96.4681474,6.74402181 104.164065,7.08739251 C111.859982,7.4307632 119.180691,15.2185781 119.180691,15.2185781 C119.180691,15.2185781 127.524101,8.54729851 136.61077,10.2001988 C145.69744,11.853099 151.172796,21.0380654 151.172796,21.0380654 C151.172796,21.0380654 161.705901,13.022956 172.685662,15.2185778 C183.665424,17.4141997 190.070158,28.8163672 190.070158,28.8163672 C190.070158,28.8163672 200.837683,24.2932646 206.246083,32.908582 C211.654484,41.5238995 206.246083,63.7010985 206.246083,63.7010985 C206.246083,63.7010985 210.614953,73.4788448 209.707952,77.6480568 C208.906194,81.3335016 201.119807,87.265069 201.119807,87.265069 C201.119807,87.265069 203.580075,95.633982 194.499137,98.2057001 C185.418198,100.777418 183.603489,95.633982 183.603489,95.633982 C183.603489,95.633982 182.842394,106.57483 182.461846,112.045254 C182.386469,113.128808 187.060481,108.088113 190.070162,108.982895 C192.02169,109.563087 192.793583,115.675719 192.744794,117.271331 C192.586443,122.450163 189.310083,130.400768 188.241901,133.265015 C185.31574,141.111284 179.787996,139.309996 179.685064,140.961144 C178.073288,166.816025 176.737654,194.331247 176.737654,194.331247 C176.737654,194.331247 136.027282,234.573062 124.991953,237.962543 C121.373626,239.073905 111.89013,244.529003 104.164068,242.216959 C98.2715498,240.453608 94.2636483,231.843383 89.5700113,227.087531 C83.1999809,220.633064 73.8367802,214.826166 67.9770608,206.165855 C48.6238253,177.562944 35.1361209,135.611383 35.1361209,135.611383 L31.8073071,93.935187 C31.8073071,93.935187 25.2667156,98.2057001 19.5195203,93.935187 Z" fill="#F4CBDF" sketch:type="MSShapeGroup"></path>
                <path d="M71.617304,198.375179 C70.6647561,197.013851 69.000485,194.222755 69.000485,193.676771 C69.000485,193.130786 68.8643721,190.831558 73.1525044,190.125456 C77.4406366,189.419354 80.5447782,191.924171 80.5447782,191.924171 C80.5447782,191.924171 83.5018128,193.94263 85.0345871,195.917024 C86.5673613,197.891419 87.0827996,200.345915 87.0827996,200.345915 C87.0827996,200.345915 87.082799,202.529855 83.1934201,203.207215 C79.3040412,203.884575 76.0603366,201.834049 76.0603366,201.834049 C76.0603366,201.834049 72.5176812,199.661948 71.617304,198.375179 Z" id="mouth" fill="#000000" sketch:type="MSShapeGroup"></path>
                <path d="M63.4784801,112.812617 C65.0767163,107.004444 65.7279155,104.32154 66.4466323,103.186318 C67.0867669,102.175218 67.1068657,103.558846 67.3803399,105.1465 C67.4139113,105.341399 67.4513011,105.539373 67.4941249,105.736368 C67.8857932,107.538097 67.4941249,108.923775 66.4466323,114.911038 C66.115674,116.802731 64.6904422,125.785429 64.6904422,125.785429 C64.6904422,125.785429 61.3539277,135.708584 61.3539277,137.150145 C61.3539277,138.591706 59.3870686,152.197544 66.0237548,154.153263 C72.6604409,156.108983 79.0846102,154.41514 79.0846102,154.41514 C79.0846102,154.41514 71.7438464,150.838013 74.6537876,147.678155 C77.5637287,144.518298 86.0483876,150.079003 86.0483876,150.079003 C86.0483876,150.079003 76.9003064,148.007513 77.5440169,149.612206 C78.1877275,151.216899 85.9947963,150.138436 85.9947964,152.276788 C85.9947964,154.41514 84.7899181,154.850983 84.7899181,154.850983 C84.7899181,154.850983 76.7294121,158.042414 72.1117685,157.477799 C67.4941249,156.913185 61.9508227,157.51928 59.9094289,152.598717 C57.868035,147.678155 57.4993477,135.426856 59.5010269,130.363633 C60.9211939,126.771338 61.8802439,118.620789 63.4784801,112.812617 Z" id="nose" fill="#000000" sketch:type="MSShapeGroup"></path>
            </g>
            <g id="right-eye" sketch:type="MSLayerGroup" transform="translate(111.000000, 84.000000)">
                <path d="M14.2269263,22.4963422 C13.1292845,22.7429958 10.6702129,23.3518336 9.63140303,23.4981917 C9.0886635,23.5746583 9.50481689,23.0946195 9.50481689,23.0946195 C9.50481689,23.0946195 10.2892992,22.6794479 10.8666958,22.0717208 C11.3264071,21.5878611 11.5906117,20.9258966 11.6868877,20.65887 C12.2681266,19.0467742 11.5710587,17.0442343 10.9679319,16.3877379 C10.2950335,15.655296 8.68947591,15.5176007 8.68947591,15.5176007 C8.68947591,15.5176007 6.27811014,15.8248048 4.95995889,17.1585104 C3.64180764,18.492216 3.60816681,20.65887 3.60816681,20.65887 C3.60816681,20.65887 3.75348689,23.8476163 4.95995889,25.2510026 C6.16643089,26.6543889 9.06615436,27.007683 9.06615436,27.007683 C9.06615436,27.007683 11.2109948,27.5938845 13.8631836,25.8214981 C15.1174769,24.9832877 17.3720341,23.3752156 18.0922693,22.4963422 C18.8949632,21.5168477 17.3875757,21.3090999 17.3875757,21.3090999 C17.3875757,21.3090999 15.8980451,22.1208212 14.2269263,22.4963422 Z" id="Path-4" fill="#000000" sketch:type="MSShapeGroup"></path>
                <path d="M9.08440309,21.6694642 C9.43277034,21.6694642 10.0923952,21.2705598 10.0923952,20.9204374 C10.0923952,20.570315 9.43277034,19.9524834 9.08440309,19.9524834 C8.98863437,19.9524834 8.86934266,19.9866714 8.74669886,20.0435246 C8.42321491,20.1934799 8.07641095,20.5011133 8.07641095,20.7549844 C8.07641095,21.1051068 8.73603584,21.6694642 9.08440309,21.6694642 Z" id="Oval-9" fill="#FFFFFF" sketch:type="MSShapeGroup"></path>
                <path d="M6.14296945,29.2525192 C6.41047951,28.5471717 6.78891139,29.8448482 9.10188175,31.3184371 C11.4148521,32.792026 13.6856243,34.0579298 13.6856243,34.0579298 C13.6856243,34.0579298 16.2113574,35.639285 16.1645257,36.5355455 C16.1176941,37.431806 13.4801913,37.9894887 13.4801913,37.9894887 C13.4801913,37.9894887 12.0510864,38.4559962 10.2942863,37.8396678 C8.5374861,37.2233395 7.70835637,36.7486688 7.13394484,35.7630705 C5.55461526,33.0531937 5.87545939,29.9578667 6.14296945,29.2525192 Z" id="Path-7" fill="#000000" sketch:type="MSShapeGroup"></path>
                <path d="M0.588271328,9.94513218 L6.99149694,0.949071691 L8.51853843,3.08990007 L12.7781156,2.09872996 L13.5166888,5.01033085 L18.1052051,5.17562905 L19.2552602,6.81375279 L23.9053756,6.81375279 L24.8848012,9.17435967 L28.6096983,8.67908417 L25.1786288,14.8867436 L20.8574525,11.5349666 L14.5644893,12.3546475 L10.3529594,11.9138523 L6.90833817,10.6057059 L5.2845861,9.51176611 L0.588271328,9.94513218 Z" id="Path-9" fill="#000000" sketch:type="MSShapeGroup"></path>
            </g>
            <g id="left-eye" sketch:type="MSLayerGroup" transform="translate(49.000000, 77.000000)">
                <path d="M18.9845322,36.5782632 C17.8868904,36.8249168 18.1847632,36.8952199 17.1459533,37.0415779 C16.6032137,37.1180446 17.671794,36.1158265 17.9127477,35.8946282 C20.1709307,33.8215904 19.3674423,31.7619651 18.7643154,31.1054687 C18.0914171,30.3730268 15.3739014,29.8271936 15.3739014,29.8271936 C15.3739014,29.8271936 12.5858572,29.771763 11.2677059,31.1054687 C9.94955466,32.4391743 9.91591383,34.6058283 9.91591383,34.6058283 C9.91591383,34.6058283 10.0612339,37.7945746 11.2677059,39.1979609 C12.4741779,40.6013472 15.3739014,40.9546412 15.3739014,40.9546412 C15.3739014,40.9546412 17.4777784,40.9703475 20.1299673,39.1979611 C21.3842606,38.3597506 25.047897,37.9204514 25.7681322,37.0415779 C26.5708261,36.0620835 24.1770276,36.1823523 24.1770276,36.1823523 C24.1770276,36.1823523 20.6556509,36.2027422 18.9845322,36.5782632 Z" id="Path-4" fill="#000000" sketch:type="MSShapeGroup"></path>
                <path d="M15.3921501,35.6164225 C15.7405174,35.6164225 16.4001423,35.2175181 16.4001423,34.8673957 C16.4001423,34.5172733 16.0187913,33.5823879 15.670424,33.5823879 C15.5746553,33.5823879 14.7856147,33.8425885 14.6629709,33.8994416 C14.3394869,34.0493969 14.384158,34.4480716 14.384158,34.7019427 C14.384158,35.0520651 15.0437829,35.6164225 15.3921501,35.6164225 Z" id="Oval-9" fill="#FFFFFF" sketch:type="MSShapeGroup"></path>
                <path d="M11.9557678,43.7546504 C11.9557678,43.7546504 11.9438779,42.0214312 12.4179035,41.8686308 C12.8838797,41.7184251 13.8149824,43.1301389 13.8149824,43.1301389 C13.8149824,43.1301389 15.7093769,45.4210765 16.5946414,46.4973932 C17.0702942,47.0756984 19.9964316,50.8548661 19.9964316,50.8548661 C19.9964316,50.8548661 20.3211069,51.3286345 20.419329,51.8671081 C20.5023164,52.3220622 19.9880213,52.6869333 19.4420594,52.5603391 C18.1930376,52.2707238 16.7568097,52.35957 15.1031734,51.4441119 C13.4495371,50.5286538 13.4095137,49.658088 12.6438296,48.541488 C12.3605127,48.1283258 11.9557678,43.7546504 11.9557678,43.7546504 Z" id="Path-7" fill="#000000" sketch:type="MSShapeGroup"></path>
                <path d="M2.52309881,15.335587 L8.92632442,6.33952649 L10.4533659,8.48035487 L14.7129431,7.48918476 L15.4515162,10.4007856 L20.0400326,10.5660838 L21.1900876,12.2042076 L25.8402031,12.2042076 L26.8196287,14.5648145 L30.5445258,14.069539 L27.1134563,20.2771984 L22.79228,16.9254214 L16.4993168,17.7451023 L12.2877869,17.3043071 L8.84316565,15.9961607 L7.21941358,14.9022209 L2.52309881,15.335587 Z" id="Path-9-Copy" fill="#000000" sketch:type="MSShapeGroup" transform="translate(16.533812, 13.308362) rotate(-25.000000) translate(-16.533812, -13.308362) "></path>
            </g>
        </g>
    </g>
</svg>